<svg role="img" viewBox="0 0 1000 1000" xmlns="http://www.w3.org/2000/svg" version="1.1" xmlns:xlink="http://www.w3.org/1999/xlink" transform="matrix(-1,1.2246467991473532e-16,-1.2246467991473532e-16,-1,0,0)">
  <title>Trucky</title>
  <path fill="currentColor" d="M395 960q-13 -1 -32.5 -2t-34.5 -3q-54 -5 -73.5 -10t-28.5 -17q-15 -21 -25.5 -62t-13.5 -91q-1 -19 -3 -24t-7 -1q-2 1 -2 2.5t2 4.5q1 2 2.5 8t1.5 12q1 13 -1.5 20t-8.5 8q-4 1 -19 0t-21 -2q-5 -2 -7.5 -15t-1.5 -36q0 -2 -0.5 -8t-1.5 -12q0 -6 -1.5 -24t-1.5 -36
l-2 -46l6 -5q3 -3 5.5 -4t5.5 0q3 0 8 0.5t9 0.5q8 0 10.5 1t6.5 5q7 9 8.5 5t0.5 -30q-1 -31 -1.5 -64.5t0.5 -65.5v-33l5 -6q3 -2 5.5 -4t3.5 -3q2 -1 3.5 -4.5t1.5 -10.5q1 -9 0.5 -10.5t-3.5 -1.5q-5 0 -11.5 -4t-8.5 -7q-1 -2 -0.5 -13t1.5 -30q1 -16 3 -43t3 -49
q4 -69 7 -89t12 -37q4 -7 5 -11.5t1 -16.5q0 -15 2 -21t7 -9q5 -2 41 -2t41 2q5 3 7 9t1 16l-1 12l25 -2q60 -3 136 -4t134 1q34 1 65 2t41 1l23 2l-1 -12q-1 -10 1 -16t7 -9q5 -2 41 -2t41 2q5 3 7 9t2 21q0 12 1 16.5t5 11.5q8 15 11.5 34t5.5 56q0 12 2 40.5t4 57.5
q3 36 3.5 53t-0.5 19q-2 4 -8.5 8t-11.5 4q-3 0 -3.5 1.5t0.5 11.5q1 6 2 9.5t3 4.5q1 1 3.5 3t4.5 4q4 4 5 10t2 37v45t-1 50t-1.5 38.5t-0.5 17.5q0 3 3 2t7 -6q4 -4 7 -5t11 -1q5 0 10.5 -0.5t6.5 -0.5q3 -1 5 0t5 4l6 5l-2 48q0 20 -1.5 37.5t-1.5 22.5q-1 6 -1.5 11
t-0.5 7q1 22 -1 34.5t-7 15.5q-2 1 -8.5 2t-13.5 1q-13 1 -17 0.5t-7 -3.5q-3 -2 -4 -5.5t-1 -15.5q1 -8 1.5 -14t2.5 -9t2 -4.5t-2 -3.5q-1 -1 -2.5 -1h-2.5q-2 1 -3 6.5t-2 20.5q-3 49 -13.5 90t-25.5 61q-5 8 -13.5 12.5t-22.5 7.5t-57 7t-80 6q-18 1 -49 1
q-32 1 -66.5 1t-65.5 -1q-32 0 -49 -1v0zM589 860q39 -2 118 -7t86 -6q13 -2 18.5 -25.5t12.5 -108.5q5 -66 5.5 -78.5t-3.5 -17.5q-3 -3 -5.5 -4t-10.5 -1q-12 0 -49.5 3.5t-98.5 11.5q-106 13 -149 13t-149 -13q-30 -4 -61.5 -7.5t-45.5 -4.5t-26.5 -2t-16.5 -2
q-5 0 -8 0.5t-6 4.5q-3 3 -4.5 6t-1.5 6t2 27.5t4 55.5q4 56 8.5 86.5t8.5 38.5t18 10.5t79 6.5q103 7 158 8.5t117 -1.5zM260 392q18 -2 22.5 -5t6.5 -13q0 -3 3.5 -23t7.5 -45q7 -40 8 -51t-1 -13t-7 -2t-23 2q-16 1 -22.5 2.5t-8.5 3.5q-4 3 -10.5 71t-3.5 72q2 3 5.5 3
t22.5 -2v0zM793 390q1 -2 0 -18.5t-5 -52.5q-4 -42 -5.5 -55.5t-4.5 -15.5q-1 -2 -7 -3.5t-17 -2.5q-21 -2 -29.5 -2t-9.5 3t10 69.5t13 71.5q2 4 6 5t20 3q15 2 21 1.5t8 -3.5zM371 353q56 -7 79.5 -8.5t64.5 -1.5t67.5 2t86.5 10q15 2 26 3t12 1q0 -1 0.5 -2.5t0.5 -3.5
q0 -7 -7 -9.5t-40 -6.5q-57 -7 -81.5 -8.5t-68.5 -1.5t-76.5 2.5t-89.5 10.5q-19 2 -22.5 3.5t-5.5 5.5q-2 6 0 8.5t7 1.5q3 0 16.5 -2t30.5 -4zM371 317q47 -5 75.5 -7t66.5 -2t66.5 2t76.5 7q17 2 30 3t14 1q2 -1 1 -6t-3 -8q-1 -1 -45.5 -6t-75.5 -7q-30 -2 -64 -2t-64 2
t-76 7t-47 7q-2 1 -3 6.5t0 6.5q2 1 7 0.5t41 -4.5v0zM377 282q40 -4 73 -6t63 -2t63 2t73 6q16 2 28 3t14 1q3 0 3 -5.5t-2 -8.5q-4 -3 -58 -7t-101 -4q-47 -1 -79.5 0.5t-82.5 5.5q-28 3 -34.5 5t-6.5 8t5 6t42 -4zM374 249q75 -7 139 -7t139 7q13 1 23 2t11 1t1.5 -1.5
t0.5 -4.5q0 -6 -6 -8t-30 -4q-78 -6 -139.5 -6t-138.5 6q-27 2 -32.5 4t-5.5 8q0 5 3.5 5.5t34.5 -2.5z"/>
</svg>
